<svg xmlns="http://www.w3.org/2000/svg" version="1.1" xmlns:xlink="http://www.w3.org/1999/xlink" xmlns:svgjs="http://svgjs.dev/svgjs" width="1000" height="1000" viewBox="0 0 1000 1000"><rect width="1000" height="1000" fill="#ffffff"></rect><g transform="matrix(0.7,0,0,0.7,149.57575757575756,464.24447986816807)"><svg viewBox="0 0 396 40" data-background-color="#f7d65a" preserveAspectRatio="xMidYMid meet" height="101" width="1000" xmlns="http://www.w3.org/2000/svg" xmlns:xlink="http://www.w3.org/1999/xlink"><defs></defs><g id="tight-bounds" transform="matrix(1,0,0,1,0.2400000000000091,0.22943147486955695)"><svg viewBox="0 0 395.52 39.541137050260915" height="39.541137050260915" width="395.52"><g><svg viewBox="0 0 395.52 39.541137050260915" height="39.541137050260915" width="395.52"><g><svg viewBox="0 0 395.52 39.541137050260915" height="39.541137050260915" width="395.52"><g><svg viewBox="0 0 395.52 39.541137050260915" height="39.541137050260915" width="395.52"><g><svg viewBox="0 0 395.52 39.541137050260915" height="39.541137050260915" width="395.52"><g transform="matrix(1,0,0,1,0,0)"><svg width="395.52" viewBox="2.549999952316284 -35.70000076293945 364.07000732421875 36.400001525878906" height="39.541137050260915" data-palette-color="#000000"><path d="M14 0.7L14 0.7Q11.83 0.7 9.65 0.38 7.48 0.05 5.63-0.46 3.78-0.98 2.55-1.55L2.55-1.55 3.2-6.6Q4.55-5.95 6.46-5.25 8.38-4.55 10.6-4.08 12.83-3.6 15.1-3.6L15.1-3.6Q18.48-3.6 20.46-4.84 22.45-6.08 22.45-8.7L22.45-8.7Q22.45-10.68 21.45-11.94 20.45-13.2 18.44-14.1 16.43-15 13.4-15.9L13.4-15.9Q10.53-16.75 8.1-17.91 5.68-19.07 4.21-21.04 2.75-23 2.75-26.25L2.75-26.25Q2.75-29.03 4.19-31.16 5.63-33.3 8.41-34.5 11.2-35.7 15.25-35.7L15.25-35.7Q18.7-35.7 21.59-34.95 24.48-34.2 26.35-33.3L26.35-33.3 25.85-28.25Q23-29.95 20.41-30.68 17.82-31.4 15.05-31.4L15.05-31.4Q11.98-31.4 9.96-30.25 7.95-29.1 7.95-26.5L7.95-26.5Q7.95-24.75 8.85-23.64 9.75-22.53 11.53-21.74 13.3-20.95 15.95-20.15L15.95-20.15Q19.6-19.05 22.23-17.64 24.85-16.23 26.25-14.16 27.65-12.1 27.65-9.05L27.65-9.05Q27.65-6.8 26.8-5 25.95-3.2 24.25-1.93 22.55-0.65 19.99 0.03 17.43 0.7 14 0.7ZM52.1-13.75L52.1-9.45 37.1-9.45 37.1-13.75 52.1-13.75ZM54.65 0L43.9-30.35 45.3-30.35 34.55 0 29.55 0 42.1-35 47.1-35 59.65 0 54.65 0ZM79.05 0.7L79.05 0.7Q73.95 0.7 69.96-1.54 65.97-3.78 63.68-7.86 61.4-11.95 61.4-17.5L61.4-17.5Q61.4-23.05 63.71-27.14 66.02-31.23 70.06-33.46 74.1-35.7 79.25-35.7L79.25-35.7Q81.92-35.7 84.35-35.13 86.77-34.55 88.6-33.65L88.6-33.65 88.1-29.25Q86.22-30.15 83.97-30.78 81.72-31.4 79.2-31.4L79.2-31.4Q75.07-31.4 72.27-29.54 69.47-27.68 68.03-24.53 66.6-21.38 66.6-17.5L66.6-17.5Q66.6-13.63 68.01-10.48 69.42-7.33 72.21-5.46 75-3.6 79.1-3.6L79.1-3.6Q81.7-3.6 83.91-4.16 86.12-4.73 88.1-5.7L88.1-5.7 88.6-1.3Q86.72-0.45 84.37 0.13 82.02 0.7 79.05 0.7ZM98.99 0L94.24 0 94.24-35 98.99-35 98.99-20.55 116.79-20.55 116.79-35 121.54-35 121.54 0 116.79 0 116.79-16.05 98.99-16.05 98.99 0ZM134.29 0L129.54 0 129.54-35 134.29-35 134.29 0ZM147.04 0L142.29 0 142.29-35 147.44-35 164.69-8.8 164.69-35 169.49-35 169.49 0 165.44 0 147.04-27.65 147.04 0ZM212.83 0L206.93 0 193.98-18.55 206.93-35 212.68-35 199.38-18.65 212.83 0ZM193.48 0L188.73 0 188.73-35 193.48-35 193.48 0ZM235.93-13.75L235.93-9.45 220.93-9.45 220.93-13.75 235.93-13.75ZM238.48 0L227.73-30.35 229.13-30.35 218.38 0 213.38 0 225.93-35 230.93-35 243.48 0 238.48 0ZM261.03 0L247.83 0 247.83-35 258.88-35Q263.58-35 266.25-32.89 268.93-30.78 268.93-26.45L268.93-26.45Q268.93-23.53 267.65-21.3 266.38-19.07 263.83-18.4L263.83-18.4 264.53-19.2Q268.18-18.6 270.18-16.29 272.18-13.98 272.18-10L272.18-10Q272.18-5.4 269.22-2.7 266.25 0 261.03 0L261.03 0ZM252.58-16.15L252.58-4.3 260.63-4.3Q263.53-4.3 265.25-5.75 266.98-7.2 266.98-10.15L266.98-10.15Q266.98-13.45 265.22-14.8 263.45-16.15 260.63-16.15L260.63-16.15 252.58-16.15ZM252.58-30.75L252.58-20.45 258.28-20.45Q260.83-20.45 262.43-21.48 264.03-22.5 264.03-25.6L264.03-25.6Q264.03-28.68 262.43-29.71 260.83-30.75 258.28-30.75L258.28-30.75 252.58-30.75ZM296.58-13.75L296.58-9.45 281.58-9.45 281.58-13.75 296.58-13.75ZM299.13 0L288.38-30.35 289.78-30.35 279.03 0 274.03 0 286.58-35 291.58-35 304.13 0 299.13 0ZM321.42 0L308.47 0 308.47-35 321.42-35Q326.5-35 330.42-32.93 334.35-30.85 336.59-26.94 338.82-23.03 338.82-17.5L338.82-17.5Q338.82-11.98 336.59-8.06 334.35-4.15 330.42-2.08 326.5 0 321.42 0L321.42 0ZM313.22-30.7L313.22-4.3 321.42-4.3Q325.42-4.3 328.14-5.96 330.85-7.63 332.24-10.6 333.62-13.58 333.62-17.5L333.62-17.5Q333.62-21.43 332.24-24.4 330.85-27.38 328.14-29.04 325.42-30.7 321.42-30.7L321.42-30.7 313.22-30.7ZM366.62 0L344.82 0 344.82-35 366.17-35 366.17-30.7 349.57-30.7 349.57-20.45 362.77-20.45 362.77-16.15 349.57-16.15 349.57-4.3 366.62-4.3 366.62 0Z" opacity="1" transform="matrix(1,0,0,1,0,0)" fill="#000000" class="undefined-text-0" data-fill-palette-color="primary" id="text-0"></path></svg></g></svg></g></svg></g></svg></g></svg></g></svg><rect width="395.52" height="39.541137050260915" fill="none" stroke="none" visibility="hidden"></rect></g></svg></g></svg>